<svg version="1.1" viewBox="0.0 0.0 453.54330708661416 540.0" fill="none" stroke="none" stroke-linecap="square" stroke-miterlimit="10" xmlns:xlink="http://www.w3.org/1999/xlink" xmlns="http://www.w3.org/2000/svg"><clipPath id="p.0"><path d="m0 0l453.5433 0l0 540.0l-453.5433 0l0 -540.0z" clip-rule="nonzero"/></clipPath><g clip-path="url(#p.0)"><path fill="#ffffff" d="m0 0l453.5433 0l0 540.0l-453.5433 0z" fill-rule="evenodd"/><g filter="url(#shadowFilter-p.1)"><use xlink:href="#p.1" transform="matrix(1.0 0.0 0.0 1.0 0.0 2.0)"/></g><defs><filter id="shadowFilter-p.1" filterUnits="userSpaceOnUse"><feGaussianBlur in="SourceAlpha" stdDeviation="2.0" result="blur"/><feComponentTransfer in="blur" color-interpolation-filters="sRGB"><feFuncR type="linear" slope="0" intercept="0.0"/><feFuncG type="linear" slope="0" intercept="0.0"/><feFuncB type="linear" slope="0" intercept="0.0"/><feFuncA type="linear" slope="0.5" intercept="0"/></feComponentTransfer></filter></defs><g id="p.1"><defs><linearGradient id="p.2" gradientUnits="userSpaceOnUse" gradientTransform="matrix(7.676568765121738 0.0 0.0 7.676568765121738 0.0 0.0)" spreadMethod="pad" x1="18.604522672510758" y1="49.14665036158671" x2="18.604494625459438" y2="56.82321912665721"><stop offset="0.0" stop-color="#f5d0d0"/><stop offset="1.0" stop-color="#d96868"/></linearGradient></defs><path fill="url(#p.2)" d="m142.8189 387.09995l0 0c0 -5.424408 4.397339 -9.821716 9.821716 -9.821716l148.26207 0c2.604889 0 5.1030884 1.0347595 6.9450073 2.876709c1.8419495 1.841919 2.876709 4.3401184 2.876709 6.9450073l0 39.285675c0 5.424408 -4.3973083 9.821716 -9.821716 9.821716l-148.26207 0l0 0c-5.4243774 0 -9.821716 -4.3973083 -9.821716 -9.821716z" fill-rule="evenodd"/><path stroke="#595959" stroke-width="2.0" stroke-linejoin="round" stroke-linecap="butt" d="m142.8189 387.09995l0 0c0 -5.424408 4.397339 -9.821716 9.821716 -9.821716l148.26207 0c2.604889 0 5.1030884 1.0347595 6.9450073 2.876709c1.8419495 1.841919 2.876709 4.3401184 2.876709 6.9450073l0 39.285675c0 5.424408 -4.3973083 9.821716 -9.821716 9.821716l-148.26207 0l0 0c-5.4243774 0 -9.821716 -4.3973083 -9.821716 -9.821716z" fill-rule="evenodd"/></g><path fill="#eeeeee" d="m151.03674 406.74277l0 0c0 -12.515533 10.145859 -22.661407 22.661423 -22.661407l0 0c6.0101776 0 11.7742 2.3875427 16.024033 6.63739c4.2498474 4.249817 6.637375 10.013855 6.637375 16.024017l0 0c0 12.515564 -10.145859 22.661438 -22.661407 22.661438l0 0c-12.515564 0 -22.661423 -10.145874 -22.661423 -22.661438z" fill-rule="evenodd"/><path stroke="#595959" stroke-width="1.0" stroke-linejoin="round" stroke-linecap="butt" d="m151.03674 406.74277l0 0c0 -12.515533 10.145859 -22.661407 22.661423 -22.661407l0 0c6.0101776 0 11.7742 2.3875427 16.024033 6.63739c4.2498474 4.249817 6.637375 10.013855 6.637375 16.024017l0 0c0 12.515564 -10.145859 22.661438 -22.661407 22.661438l0 0c-12.515564 0 -22.661423 -10.145874 -22.661423 -22.661438z" fill-rule="evenodd"/><path fill="#eeeeee" d="m204.11023 406.74277l0 0c0 -12.515533 10.145874 -22.661407 22.661423 -22.661407l0 0c6.0101776 0 11.7742 2.3875427 16.024048 6.63739c4.249832 4.249817 6.637375 10.013855 6.637375 16.024017l0 0c0 12.515564 -10.145859 22.661438 -22.661423 22.661438l0 0c-12.515549 0 -22.661423 -10.145874 -22.661423 -22.661438z" fill-rule="evenodd"/><path stroke="#595959" stroke-width="1.0" stroke-linejoin="round" stroke-linecap="butt" d="m204.11023 406.74277l0 0c0 -12.515533 10.145874 -22.661407 22.661423 -22.661407l0 0c6.0101776 0 11.7742 2.3875427 16.024048 6.63739c4.249832 4.249817 6.637375 10.013855 6.637375 16.024017l0 0c0 12.515564 -10.145859 22.661438 -22.661423 22.661438l0 0c-12.515549 0 -22.661423 -10.145874 -22.661423 -22.661438z" fill-rule="evenodd"/><path fill="#eeeeee" d="m257.18372 406.74277l0 0c0 -12.515533 10.145874 -22.661407 22.661438 -22.661407l0 0c6.0101624 0 11.7742 2.3875427 16.024017 6.63739c4.2498474 4.249817 6.63739 10.013855 6.63739 16.024017l0 0c0 12.515564 -10.145874 22.661438 -22.661407 22.661438l0 0c-12.515564 0 -22.661438 -10.145874 -22.661438 -22.661438z" fill-rule="evenodd"/><path stroke="#595959" stroke-width="1.0" stroke-linejoin="round" stroke-linecap="butt" d="m257.18372 406.74277l0 0c0 -12.515533 10.145874 -22.661407 22.661438 -22.661407l0 0c6.0101624 0 11.7742 2.3875427 16.024017 6.63739c4.2498474 4.249817 6.63739 10.013855 6.63739 16.024017l0 0c0 12.515564 -10.145874 22.661438 -22.661407 22.661438l0 0c-12.515564 0 -22.661438 -10.145874 -22.661438 -22.661438z" fill-rule="evenodd"/><path fill="#000000" fill-opacity="0.0" d="m113.44602 382.75067l36.15748 0l0 34.771637l-36.15748 0z" fill-rule="evenodd"/><path fill="#434343" d="m123.10227 408.93378l1.859375 -0.296875q0.15625 1.109375 0.859375 1.703125q0.71875 0.59375 2.0 0.59375q1.2968826 0 1.9218826 -0.515625q0.625 -0.53125 0.625 -1.234375q0 -0.640625 -0.5625 -1.0q-0.375 -0.25 -1.9062576 -0.640625q-2.0625 -0.515625 -2.859375 -0.890625q-0.796875 -0.390625 -1.21875 -1.0625q-0.40625 -0.671875 -0.40625 -1.484375q0 -0.734375 0.328125 -1.359375q0.34375 -0.640625 0.9375 -1.0625q0.4375 -0.3125 1.1875 -0.53125q0.75 -0.234375 1.625 -0.234375q1.2968826 0 2.2812576 0.375q0.984375 0.375 1.453125 1.015625q0.46875 0.640625 0.640625 1.71875l-1.828125 0.25q-0.125 -0.859375 -0.734375 -1.328125q-0.59375 -0.484375 -1.6875076 -0.484375q-1.28125 0 -1.84375 0.421875q-0.546875 0.421875 -0.546875 1.0q0 0.359375 0.234375 0.65625q0.21875 0.296875 0.71875 0.5q0.28125 0.109375 1.65625 0.484375q1.9843826 0.53125 2.7656326 0.875q0.796875 0.328125 1.234375 0.984375q0.453125 0.640625 0.453125 1.59375q0 0.9375 -0.546875 1.765625q-0.546875 0.828125 -1.578125 1.28125q-1.03125 0.453125 -2.3281326 0.453125q-2.15625 0 -3.296875 -0.890625q-1.125 -0.90625 -1.4375 -2.65625z" fill-rule="nonzero"/><path fill="#000000" fill-opacity="0.0" d="m138.34645 458.28085l175.30708 0l0 58.929108l-175.30708 0z" fill-rule="evenodd"/><path fill="#434343" d="m190.16586 500.56085l0 -24.8125l8.546875 0q2.890625 0 4.421875 0.359375q2.125 0.484375 3.640625 1.78125q1.953125 1.65625 2.921875 4.234375q0.984375 2.578125 0.984375 5.890625q0 2.828125 -0.671875 5.015625q-0.65625 2.1875 -1.6875 3.625q-1.03125 1.421875 -2.265625 2.25q-1.21875 0.8125 -2.953125 1.234375q-1.734375 0.421875 -3.984375 0.421875l-8.953125 0zm3.28125 -2.921875l5.296875 0q2.453125 0 3.84375 -0.453125q1.40625 -0.46875 2.234375 -1.296875q1.171875 -1.171875 1.8125 -3.140625q0.65625 -1.96875 0.65625 -4.78125q0 -3.890625 -1.28125 -5.96875q-1.265625 -2.09375 -3.09375 -2.8125q-1.328125 -0.5 -4.25 -0.5l-5.21875 0l0 18.953125zm40.54326 0.265625q2.296875 1.578125 4.21875 2.296875l-0.96875 2.28125q-2.671875 -0.953125 -5.328125 -3.03125q-2.75 1.53125 -6.09375 1.53125q-3.359375 0 -6.109375 -1.625q-2.734375 -1.625 -4.21875 -4.5625q-1.484375 -2.953125 -1.484375 -6.640625q0 -3.671875 1.484375 -6.671875q1.5 -3.015625 4.25 -4.59375q2.75 -1.578125 6.15625 -1.578125q3.421875 0 6.171875 1.640625q2.765625 1.625 4.21875 4.5625q1.453125 2.9375 1.453125 6.625q0 3.0625 -0.9375 5.515625q-0.921875 2.4375 -2.8125 4.25zm-7.21875 -4.203125q2.84375 0.796875 4.6875 2.375q2.890625 -2.640625 2.890625 -7.9375q0 -3.015625 -1.03125 -5.265625q-1.015625 -2.25 -2.984375 -3.484375q-1.96875 -1.25 -4.421875 -1.25q-3.671875 0 -6.09375 2.515625q-2.421875 2.515625 -2.421875 7.5q0 4.84375 2.390625 7.4375q2.390625 2.578125 6.125 2.578125q1.75 0 3.3125 -0.65625q-1.546875 -1.0 -3.25 -1.421875l0.796875 -2.390625zm15.347366 6.859375l0 -24.8125l3.359375 0l13.03125 19.484375l0 -19.484375l3.15625 0l0 24.8125l-3.375 0l-13.03125 -19.5l0 19.5l-3.140625 0z" fill-rule="nonzero"/><g filter="url(#shadowFilter-p.3)"><use xlink:href="#p.3" transform="matrix(1.0 0.0 0.0 1.0 0.0 2.0)"/></g><defs><filter id="shadowFilter-p.3" filterUnits="userSpaceOnUse"><feGaussianBlur in="SourceAlpha" stdDeviation="2.0" result="blur"/><feComponentTransfer in="blur" color-interpolation-filters="sRGB"><feFuncR type="linear" slope="0" intercept="0.0"/><feFuncG type="linear" slope="0" intercept="0.0"/><feFuncB type="linear" slope="0" intercept="0.0"/><feFuncA type="linear" slope="0.5" intercept="0"/></feComponentTransfer></filter></defs><g id="p.3"><defs><linearGradient id="p.4" gradientUnits="userSpaceOnUse" gradientTransform="matrix(7.67659547655271 0.0 0.0 7.67659547655271 0.0 0.0)" spreadMethod="pad" x1="11.629923120970396" y1="39.16893316008582" x2="11.629895074016668" y2="46.8455286365873"><stop offset="0.0" stop-color="#f5d0d0"/><stop offset="1.0" stop-color="#d96868"/></linearGradient></defs><path fill="url(#p.4)" d="m89.27821 310.50674l0 0c0 -5.4243774 4.397331 -9.821716 9.821724 -9.821716l254.65576 0c2.604889 0 5.1030884 1.03479 6.9450073 2.8767395c1.841919 1.841919 2.876709 4.3401184 2.876709 6.944977l0 39.285706c0 5.4243774 -4.397339 9.821716 -9.821716 9.821716l-254.65576 0c-5.4243927 0 -9.821724 -4.397339 -9.821724 -9.821716z" fill-rule="evenodd"/><path stroke="#595959" stroke-width="2.0" stroke-linejoin="round" stroke-linecap="butt" d="m89.27821 310.50674l0 0c0 -5.4243774 4.397331 -9.821716 9.821724 -9.821716l254.65576 0c2.604889 0 5.1030884 1.03479 6.9450073 2.8767395c1.841919 1.841919 2.876709 4.3401184 2.876709 6.944977l0 39.285706c0 5.4243774 -4.397339 9.821716 -9.821716 9.821716l-254.65576 0c-5.4243927 0 -9.821724 -4.397339 -9.821724 -9.821716z" fill-rule="evenodd"/></g><path fill="#eeeeee" d="m97.49606 330.1496l0 0c0 -12.515533 10.145859 -22.661407 22.661415 -22.661407l0 0c6.0101852 0 11.774208 2.3875427 16.02404 6.6373596c4.2498474 4.2498474 6.637375 10.0138855 6.637375 16.024048l0 0c0 12.515564 -10.145859 22.661438 -22.661415 22.661438l0 0c-12.515556 0 -22.661415 -10.145874 -22.661415 -22.661438z" fill-rule="evenodd"/><path stroke="#595959" stroke-width="1.0" stroke-linejoin="round" stroke-linecap="butt" d="m97.49606 330.1496l0 0c0 -12.515533 10.145859 -22.661407 22.661415 -22.661407l0 0c6.0101852 0 11.774208 2.3875427 16.02404 6.6373596c4.2498474 4.2498474 6.637375 10.0138855 6.637375 16.024048l0 0c0 12.515564 -10.145859 22.661438 -22.661415 22.661438l0 0c-12.515556 0 -22.661415 -10.145874 -22.661415 -22.661438z" fill-rule="evenodd"/><path fill="#eeeeee" d="m150.56955 330.1496l0 0c0 -12.515533 10.145859 -22.661407 22.661423 -22.661407l0 0c6.0101776 0 11.7742 2.3875427 16.024048 6.6373596c4.249832 4.2498474 6.637375 10.0138855 6.637375 16.024048l0 0c0 12.515564 -10.145874 22.661438 -22.661423 22.661438l0 0c-12.515564 0 -22.661423 -10.145874 -22.661423 -22.661438z" fill-rule="evenodd"/><path stroke="#595959" stroke-width="1.0" stroke-linejoin="round" stroke-linecap="butt" d="m150.56955 330.1496l0 0c0 -12.515533 10.145859 -22.661407 22.661423 -22.661407l0 0c6.0101776 0 11.7742 2.3875427 16.024048 6.6373596c4.249832 4.2498474 6.637375 10.0138855 6.637375 16.024048l0 0c0 12.515564 -10.145874 22.661438 -22.661423 22.661438l0 0c-12.515564 0 -22.661423 -10.145874 -22.661423 -22.661438z" fill-rule="evenodd"/><path fill="#eeeeee" d="m203.64305 330.1496l0 0c0 -12.515533 10.145859 -22.661407 22.661407 -22.661407l0 0c6.0101776 0 11.7742 2.3875427 16.024048 6.6373596c4.249832 4.2498474 6.637375 10.0138855 6.637375 16.024048l0 0c0 12.515564 -10.145859 22.661438 -22.661423 22.661438l0 0c-12.515549 0 -22.661407 -10.145874 -22.661407 -22.661438z" fill-rule="evenodd"/><path stroke="#595959" stroke-width="1.0" stroke-linejoin="round" stroke-linecap="butt" d="m203.64305 330.1496l0 0c0 -12.515533 10.145859 -22.661407 22.661407 -22.661407l0 0c6.0101776 0 11.7742 2.3875427 16.024048 6.6373596c4.249832 4.2498474 6.637375 10.0138855 6.637375 16.024048l0 0c0 12.515564 -10.145859 22.661438 -22.661423 22.661438l0 0c-12.515549 0 -22.661407 -10.145874 -22.661407 -22.661438z" fill-rule="evenodd"/><path fill="#eeeeee" d="m256.71652 330.1496l0 0c0 -12.515533 10.145874 -22.661407 22.661438 -22.661407l0 0c6.0101624 0 11.7742 2.3875427 16.024048 6.6373596c4.249817 4.2498474 6.6373596 10.0138855 6.6373596 16.024048l0 0c0 12.515564 -10.145874 22.661438 -22.661407 22.661438l0 0c-12.515564 0 -22.661438 -10.145874 -22.661438 -22.661438z" fill-rule="evenodd"/><path stroke="#595959" stroke-width="1.0" stroke-linejoin="round" stroke-linecap="butt" d="m256.71652 330.1496l0 0c0 -12.515533 10.145874 -22.661407 22.661438 -22.661407l0 0c6.0101624 0 11.7742 2.3875427 16.024048 6.6373596c4.249817 4.2498474 6.6373596 10.0138855 6.6373596 16.024048l0 0c0 12.515564 -10.145874 22.661438 -22.661407 22.661438l0 0c-12.515564 0 -22.661438 -10.145874 -22.661438 -22.661438z" fill-rule="evenodd"/><path fill="#eeeeee" d="m309.79004 330.1496l0 0c0 -12.515533 10.1458435 -22.661407 22.661407 -22.661407l0 0c6.010193 0 11.7742 2.3875427 16.024048 6.6373596c4.249817 4.2498474 6.6373596 10.0138855 6.6373596 16.024048l0 0c0 12.515564 -10.1458435 22.661438 -22.661407 22.661438l0 0c-12.515564 0 -22.661407 -10.145874 -22.661407 -22.661438z" fill-rule="evenodd"/><path stroke="#595959" stroke-width="1.0" stroke-linejoin="round" stroke-linecap="butt" d="m309.79004 330.1496l0 0c0 -12.515533 10.1458435 -22.661407 22.661407 -22.661407l0 0c6.010193 0 11.7742 2.3875427 16.024048 6.6373596c4.249817 4.2498474 6.6373596 10.0138855 6.6373596 16.024048l0 0c0 12.515564 -10.1458435 22.661438 -22.661407 22.661438l0 0c-12.515564 0 -22.661407 -10.145874 -22.661407 -22.661438z" fill-rule="evenodd"/><g filter="url(#shadowFilter-p.5)"><use xlink:href="#p.5" transform="matrix(1.0 0.0 0.0 1.0 0.0 2.0)"/></g><defs><filter id="shadowFilter-p.5" filterUnits="userSpaceOnUse"><feGaussianBlur in="SourceAlpha" stdDeviation="2.0" result="blur"/><feComponentTransfer in="blur" color-interpolation-filters="sRGB"><feFuncR type="linear" slope="0" intercept="0.0"/><feFuncG type="linear" slope="0" intercept="0.0"/><feFuncB type="linear" slope="0" intercept="0.0"/><feFuncA type="linear" slope="0.5" intercept="0"/></feComponentTransfer></filter></defs><g id="p.5"><defs><linearGradient id="p.6" gradientUnits="userSpaceOnUse" gradientTransform="matrix(7.676622187890134 0.0 0.0 7.676622187890134 0.0 0.0)" spreadMethod="pad" x1="4.56237407417208" y1="28.305068848715308" x2="4.562346361207089" y2="35.98169103655542"><stop offset="0.0" stop-color="#f5d0d0"/><stop offset="1.0" stop-color="#d96868"/></linearGradient></defs><path fill="url(#p.6)" d="m35.02362 227.11043l0 0c0 -5.4243774 4.397335 -9.821716 9.82172 -9.821716l363.85263 0c2.604889 0 5.1030884 1.03479 6.9450073 2.8767242c1.841919 1.841919 2.876709 4.3401184 2.876709 6.944992l0 39.28569c0 5.424408 -4.397339 9.821716 -9.821716 9.821716l-363.85263 0c-5.424385 0 -9.82172 -4.3973083 -9.82172 -9.821716z" fill-rule="evenodd"/><path stroke="#595959" stroke-width="2.0" stroke-linejoin="round" stroke-linecap="butt" d="m35.02362 227.11043l0 0c0 -5.4243774 4.397335 -9.821716 9.82172 -9.821716l363.85263 0c2.604889 0 5.1030884 1.03479 6.9450073 2.8767242c1.841919 1.841919 2.876709 4.3401184 2.876709 6.944992l0 39.28569c0 5.424408 -4.397339 9.821716 -9.821716 9.821716l-363.85263 0c-5.424385 0 -9.82172 -4.3973083 -9.82172 -9.821716z" fill-rule="evenodd"/></g><path fill="#eeeeee" d="m44.11811 246.75328l0 0c0 -12.515549 10.145863 -22.661423 22.661415 -22.661423l0 0c6.0101852 0 11.7742 2.3875427 16.02404 6.637375c4.24984 4.2498474 6.6373825 10.01387 6.6373825 16.024048l0 0c0 12.515549 -10.145866 22.661423 -22.661423 22.661423l0 0c-12.5155525 0 -22.661415 -10.145874 -22.661415 -22.661423z" fill-rule="evenodd"/><path stroke="#595959" stroke-width="1.0" stroke-linejoin="round" stroke-linecap="butt" d="m44.11811 246.75328l0 0c0 -12.515549 10.145863 -22.661423 22.661415 -22.661423l0 0c6.0101852 0 11.7742 2.3875427 16.02404 6.637375c4.24984 4.2498474 6.6373825 10.01387 6.6373825 16.024048l0 0c0 12.515549 -10.145866 22.661423 -22.661423 22.661423l0 0c-12.5155525 0 -22.661415 -10.145874 -22.661415 -22.661423z" fill-rule="evenodd"/><path fill="#eeeeee" d="m97.191605 246.75328l0 0c0 -12.515549 10.145859 -22.661423 22.661415 -22.661423l0 0c6.0101776 0 11.774193 2.3875427 16.02404 6.637375c4.2498474 4.2498474 6.637375 10.01387 6.637375 16.024048l0 0c0 12.515549 -10.145859 22.661423 -22.661415 22.661423l0 0c-12.515556 0 -22.661415 -10.145874 -22.661415 -22.661423z" fill-rule="evenodd"/><path stroke="#595959" stroke-width="1.0" stroke-linejoin="round" stroke-linecap="butt" d="m97.191605 246.75328l0 0c0 -12.515549 10.145859 -22.661423 22.661415 -22.661423l0 0c6.0101776 0 11.774193 2.3875427 16.02404 6.637375c4.2498474 4.2498474 6.637375 10.01387 6.637375 16.024048l0 0c0 12.515549 -10.145859 22.661423 -22.661415 22.661423l0 0c-12.515556 0 -22.661415 -10.145874 -22.661415 -22.661423z" fill-rule="evenodd"/><path fill="#eeeeee" d="m150.26509 246.75328l0 0c0 -12.515549 10.145859 -22.661423 22.661423 -22.661423l0 0c6.0101776 0 11.7742 2.3875427 16.024033 6.637375c4.2498474 4.2498474 6.637375 10.01387 6.637375 16.024048l0 0c0 12.515549 -10.145859 22.661423 -22.661407 22.661423l0 0c-12.515564 0 -22.661423 -10.145874 -22.661423 -22.661423z" fill-rule="evenodd"/><path stroke="#595959" stroke-width="1.0" stroke-linejoin="round" stroke-linecap="butt" d="m150.26509 246.75328l0 0c0 -12.515549 10.145859 -22.661423 22.661423 -22.661423l0 0c6.0101776 0 11.7742 2.3875427 16.024033 6.637375c4.2498474 4.2498474 6.637375 10.01387 6.637375 16.024048l0 0c0 12.515549 -10.145859 22.661423 -22.661407 22.661423l0 0c-12.515564 0 -22.661423 -10.145874 -22.661423 -22.661423z" fill-rule="evenodd"/><path fill="#eeeeee" d="m203.33858 246.75328l0 0c0 -12.515549 10.145874 -22.661423 22.661423 -22.661423l0 0c6.0101776 0 11.7742 2.3875427 16.024048 6.637375c4.249832 4.2498474 6.637375 10.01387 6.637375 16.024048l0 0c0 12.515549 -10.145874 22.661423 -22.661423 22.661423l0 0c-12.515549 0 -22.661423 -10.145874 -22.661423 -22.661423z" fill-rule="evenodd"/><path stroke="#595959" stroke-width="1.0" stroke-linejoin="round" stroke-linecap="butt" d="m203.33858 246.75328l0 0c0 -12.515549 10.145874 -22.661423 22.661423 -22.661423l0 0c6.0101776 0 11.7742 2.3875427 16.024048 6.637375c4.249832 4.2498474 6.637375 10.01387 6.637375 16.024048l0 0c0 12.515549 -10.145874 22.661423 -22.661423 22.661423l0 0c-12.515549 0 -22.661423 -10.145874 -22.661423 -22.661423z" fill-rule="evenodd"/><path fill="#eeeeee" d="m256.41208 246.75328l0 0c0 -12.515549 10.1458435 -22.661423 22.661407 -22.661423l0 0c6.010193 0 11.7742 2.3875427 16.024048 6.637375c4.2498474 4.2498474 6.6373596 10.01387 6.6373596 16.024048l0 0c0 12.515549 -10.1458435 22.661423 -22.661407 22.661423l0 0c-12.515564 0 -22.661407 -10.145874 -22.661407 -22.661423z" fill-rule="evenodd"/><path stroke="#595959" stroke-width="1.0" stroke-linejoin="round" stroke-linecap="butt" d="m256.41208 246.75328l0 0c0 -12.515549 10.1458435 -22.661423 22.661407 -22.661423l0 0c6.010193 0 11.7742 2.3875427 16.024048 6.637375c4.2498474 4.2498474 6.6373596 10.01387 6.6373596 16.024048l0 0c0 12.515549 -10.1458435 22.661423 -22.661407 22.661423l0 0c-12.515564 0 -22.661407 -10.145874 -22.661407 -22.661423z" fill-rule="evenodd"/><path fill="#eeeeee" d="m309.48557 246.75328l0 0c0 -12.515549 10.145874 -22.661423 22.661407 -22.661423l0 0c6.010193 0 11.7742 2.3875427 16.024048 6.637375c4.2498474 4.2498474 6.63739 10.01387 6.63739 16.024048l0 0c0 12.515549 -10.145874 22.661423 -22.661438 22.661423l0 0c-12.515533 0 -22.661407 -10.145874 -22.661407 -22.661423z" fill-rule="evenodd"/><path stroke="#595959" stroke-width="1.0" stroke-linejoin="round" stroke-linecap="butt" d="m309.48557 246.75328l0 0c0 -12.515549 10.145874 -22.661423 22.661407 -22.661423l0 0c6.010193 0 11.7742 2.3875427 16.024048 6.637375c4.2498474 4.2498474 6.63739 10.01387 6.63739 16.024048l0 0c0 12.515549 -10.145874 22.661423 -22.661438 22.661423l0 0c-12.515533 0 -22.661407 -10.145874 -22.661407 -22.661423z" fill-rule="evenodd"/><path fill="#eeeeee" d="m362.55905 246.75328l0 0c0 -12.515549 10.145874 -22.661423 22.661407 -22.661423l0 0c6.010193 0 11.7742 2.3875427 16.024048 6.637375c4.2498474 4.2498474 6.63739 10.01387 6.63739 16.024048l0 0c0 12.515549 -10.145874 22.661423 -22.661438 22.661423l0 0c-12.515533 0 -22.661407 -10.145874 -22.661407 -22.661423z" fill-rule="evenodd"/><path stroke="#595959" stroke-width="1.0" stroke-linejoin="round" stroke-linecap="butt" d="m362.55905 246.75328l0 0c0 -12.515549 10.145874 -22.661423 22.661407 -22.661423l0 0c6.010193 0 11.7742 2.3875427 16.024048 6.637375c4.2498474 4.2498474 6.63739 10.01387 6.63739 16.024048l0 0c0 12.515549 -10.145874 22.661423 -22.661438 22.661423l0 0c-12.515533 0 -22.661407 -10.145874 -22.661407 -22.661423z" fill-rule="evenodd"/><g filter="url(#shadowFilter-p.7)"><use xlink:href="#p.7" transform="matrix(1.0 0.0 0.0 1.0 0.0 2.0)"/></g><defs><filter id="shadowFilter-p.7" filterUnits="userSpaceOnUse"><feGaussianBlur in="SourceAlpha" stdDeviation="2.0" result="blur"/><feComponentTransfer in="blur" color-interpolation-filters="sRGB"><feFuncR type="linear" slope="0" intercept="0.0"/><feFuncG type="linear" slope="0" intercept="0.0"/><feFuncB type="linear" slope="0" intercept="0.0"/><feFuncA type="linear" slope="0.5" intercept="0"/></feComponentTransfer></filter></defs><g id="p.7"><defs><linearGradient id="p.8" gradientUnits="userSpaceOnUse" gradientTransform="matrix(7.676571436269017 0.0 0.0 7.676571436269017 0.0 0.0)" spreadMethod="pad" x1="18.604516198862914" y1="17.441611063680483" x2="18.604488151821354" y2="25.11818249989826"><stop offset="0.0" stop-color="#f5d0d0"/><stop offset="1.0" stop-color="#d96868"/></linearGradient></defs><path fill="url(#p.8)" d="m142.8189 143.71411l0 0c0 -5.4243927 4.397339 -9.821716 9.821716 -9.821716l148.26207 0c2.604889 0 5.1030884 1.0347748 6.9450073 2.876709c1.8419495 1.8419342 2.876709 4.3401184 2.876709 6.9450073l0 39.28569c0 5.4243927 -4.3973083 9.821716 -9.821716 9.821716l-148.26207 0l0 0c-5.4243774 0 -9.821716 -4.3973236 -9.821716 -9.821716z" fill-rule="evenodd"/><path stroke="#595959" stroke-width="2.0" stroke-linejoin="round" stroke-linecap="butt" d="m142.8189 143.71411l0 0c0 -5.4243927 4.397339 -9.821716 9.821716 -9.821716l148.26207 0c2.604889 0 5.1030884 1.0347748 6.9450073 2.876709c1.8419495 1.8419342 2.876709 4.3401184 2.876709 6.9450073l0 39.28569c0 5.4243927 -4.3973083 9.821716 -9.821716 9.821716l-148.26207 0l0 0c-5.4243774 0 -9.821716 -4.3973236 -9.821716 -9.821716z" fill-rule="evenodd"/></g><path fill="#eeeeee" d="m151.03674 163.35695l0 0c0 -12.515549 10.145859 -22.661407 22.661423 -22.661407l0 0c6.0101776 0 11.7742 2.3875275 16.024033 6.637375c4.2498474 4.249832 6.637375 10.013855 6.637375 16.024033l0 0c0 12.515564 -10.145859 22.661423 -22.661407 22.661423l0 0c-12.515564 0 -22.661423 -10.145859 -22.661423 -22.661423z" fill-rule="evenodd"/><path stroke="#595959" stroke-width="1.0" stroke-linejoin="round" stroke-linecap="butt" d="m151.03674 163.35695l0 0c0 -12.515549 10.145859 -22.661407 22.661423 -22.661407l0 0c6.0101776 0 11.7742 2.3875275 16.024033 6.637375c4.2498474 4.249832 6.637375 10.013855 6.637375 16.024033l0 0c0 12.515564 -10.145859 22.661423 -22.661407 22.661423l0 0c-12.515564 0 -22.661423 -10.145859 -22.661423 -22.661423z" fill-rule="evenodd"/><path fill="#eeeeee" d="m204.11023 163.35695l0 0c0 -12.515549 10.145874 -22.661407 22.661423 -22.661407l0 0c6.0101776 0 11.7742 2.3875275 16.024048 6.637375c4.249832 4.249832 6.637375 10.013855 6.637375 16.024033l0 0c0 12.515564 -10.145859 22.661423 -22.661423 22.661423l0 0c-12.515549 0 -22.661423 -10.145859 -22.661423 -22.661423z" fill-rule="evenodd"/><path stroke="#595959" stroke-width="1.0" stroke-linejoin="round" stroke-linecap="butt" d="m204.11023 163.35695l0 0c0 -12.515549 10.145874 -22.661407 22.661423 -22.661407l0 0c6.0101776 0 11.7742 2.3875275 16.024048 6.637375c4.249832 4.249832 6.637375 10.013855 6.637375 16.024033l0 0c0 12.515564 -10.145859 22.661423 -22.661423 22.661423l0 0c-12.515549 0 -22.661423 -10.145859 -22.661423 -22.661423z" fill-rule="evenodd"/><path fill="#eeeeee" d="m257.18372 163.35695l0 0c0 -12.515549 10.145874 -22.661407 22.661438 -22.661407l0 0c6.0101624 0 11.7742 2.3875275 16.024017 6.637375c4.2498474 4.249832 6.63739 10.013855 6.63739 16.024033l0 0c0 12.515564 -10.145874 22.661423 -22.661407 22.661423l0 0c-12.515564 0 -22.661438 -10.145859 -22.661438 -22.661423z" fill-rule="evenodd"/><path stroke="#595959" stroke-width="1.0" stroke-linejoin="round" stroke-linecap="butt" d="m257.18372 163.35695l0 0c0 -12.515549 10.145874 -22.661407 22.661438 -22.661407l0 0c6.0101624 0 11.7742 2.3875275 16.024017 6.637375c4.2498474 4.249832 6.63739 10.013855 6.63739 16.024033l0 0c0 12.515564 -10.145874 22.661423 -22.661407 22.661423l0 0c-12.515564 0 -22.661438 -10.145859 -22.661438 -22.661423z" fill-rule="evenodd"/><path fill="#000000" fill-opacity="0.0" d="m173.69817 384.08136l-53.543312 -31.275574" fill-rule="evenodd"/><path stroke="#595959" stroke-width="2.0" stroke-linejoin="round" stroke-linecap="butt" d="m173.69817 384.08136l-53.543312 -31.275574" fill-rule="evenodd"/><path fill="#000000" fill-opacity="0.0" d="m173.69817 384.08136l-0.47244263 -31.275574" fill-rule="evenodd"/><path stroke="#595959" stroke-width="2.0" stroke-linejoin="round" stroke-linecap="butt" d="m173.69817 384.08136l-0.47244263 -31.275574" fill-rule="evenodd"/><path fill="#000000" fill-opacity="0.0" d="m226.77165 384.08136l-53.543304 -31.275574" fill-rule="evenodd"/><path stroke="#595959" stroke-width="2.0" stroke-linejoin="round" stroke-linecap="butt" d="m226.77165 384.08136l-53.543304 -31.275574" fill-rule="evenodd"/><path fill="#000000" fill-opacity="0.0" d="m226.77165 384.08136l-0.47244263 -31.275574" fill-rule="evenodd"/><path stroke="#595959" stroke-width="2.0" stroke-linejoin="round" stroke-linecap="butt" d="m226.77165 384.08136l-0.47244263 -31.275574" fill-rule="evenodd"/><path fill="#000000" fill-opacity="0.0" d="m226.77165 384.08136l52.598434 -31.275574" fill-rule="evenodd"/><path stroke="#595959" stroke-width="2.0" stroke-linejoin="round" stroke-linecap="butt" d="m226.77165 384.08136l52.598434 -31.275574" fill-rule="evenodd"/><path fill="#000000" fill-opacity="0.0" d="m279.84515 384.08136l-53.54332 -31.275574" fill-rule="evenodd"/><path stroke="#595959" stroke-width="2.0" stroke-linejoin="round" stroke-linecap="butt" d="m279.84515 384.08136l-53.54332 -31.275574" fill-rule="evenodd"/><path fill="#000000" fill-opacity="0.0" d="m279.84515 384.08136l52.59842 -31.275574" fill-rule="evenodd"/><path stroke="#595959" stroke-width="2.0" stroke-linejoin="round" stroke-linecap="butt" d="m279.84515 384.08136l52.59842 -31.275574" fill-rule="evenodd"/><path fill="#000000" fill-opacity="0.0" d="m120.15748 307.4882l-53.385826 -38.078735" fill-rule="evenodd"/><path stroke="#595959" stroke-width="2.0" stroke-linejoin="round" stroke-linecap="butt" d="m120.15748 307.4882l-53.385826 -38.078735" fill-rule="evenodd"/><path fill="#000000" fill-opacity="0.0" d="m120.15748 307.4882l-0.31495667 -38.078735" fill-rule="evenodd"/><path stroke="#595959" stroke-width="2.0" stroke-linejoin="round" stroke-linecap="butt" d="m120.15748 307.4882l-0.31495667 -38.078735" fill-rule="evenodd"/><path fill="#000000" fill-opacity="0.0" d="m173.23097 307.4882l-0.31495667 -38.078735" fill-rule="evenodd"/><path stroke="#595959" stroke-width="2.0" stroke-linejoin="round" stroke-linecap="butt" d="m173.23097 307.4882l-0.31495667 -38.078735" fill-rule="evenodd"/><path fill="#000000" fill-opacity="0.0" d="m332.45145 307.4882l52.75589 -38.078735" fill-rule="evenodd"/><path stroke="#595959" stroke-width="2.0" stroke-linejoin="round" stroke-linecap="butt" d="m332.45145 307.4882l52.75589 -38.078735" fill-rule="evenodd"/><path fill="#000000" fill-opacity="0.0" d="m332.45145 307.4882l-53.385834 -38.078735" fill-rule="evenodd"/><path stroke="#595959" stroke-width="2.0" stroke-linejoin="round" stroke-linecap="butt" d="m332.45145 307.4882l-53.385834 -38.078735" fill-rule="evenodd"/><path fill="#000000" fill-opacity="0.0" d="m226.30446 307.4882l52.755905 -38.078735" fill-rule="evenodd"/><path stroke="#595959" stroke-width="2.0" stroke-linejoin="round" stroke-linecap="butt" d="m226.30446 307.4882l52.755905 -38.078735" fill-rule="evenodd"/><path fill="#000000" fill-opacity="0.0" d="m279.37796 307.4882l-106.456696 -38.078735" fill-rule="evenodd"/><path stroke="#595959" stroke-width="2.0" stroke-linejoin="round" stroke-linecap="butt" d="m279.37796 307.4882l-106.456696 -38.078735" fill-rule="evenodd"/><path fill="#000000" fill-opacity="0.0" d="m173.23097 307.4882l52.755905 -38.078735" fill-rule="evenodd"/><path stroke="#595959" stroke-width="2.0" stroke-linejoin="round" stroke-linecap="butt" d="m173.23097 307.4882l52.755905 -38.078735" fill-rule="evenodd"/><path fill="#000000" fill-opacity="0.0" d="m332.45145 307.4882l-0.31497192 -38.078735" fill-rule="evenodd"/><path stroke="#595959" stroke-width="2.0" stroke-linejoin="round" stroke-linecap="butt" d="m332.45145 307.4882l-0.31497192 -38.078735" fill-rule="evenodd"/><path fill="#000000" fill-opacity="0.0" d="m66.779526 224.09186l106.92914 -38.078735" fill-rule="evenodd"/><path stroke="#595959" stroke-width="2.0" stroke-linejoin="round" stroke-linecap="butt" d="m66.779526 224.09186l106.92914 -38.078735" fill-rule="evenodd"/><path fill="#000000" fill-opacity="0.0" d="m119.85302 224.09186l53.85827 -38.078735" fill-rule="evenodd"/><path stroke="#595959" stroke-width="2.0" stroke-linejoin="round" stroke-linecap="butt" d="m119.85302 224.09186l53.85827 -38.078735" fill-rule="evenodd"/><path fill="#000000" fill-opacity="0.0" d="m172.92651 224.09186l0.7873993 -38.078735" fill-rule="evenodd"/><path stroke="#595959" stroke-width="2.0" stroke-linejoin="round" stroke-linecap="butt" d="m172.92651 224.09186l0.7873993 -38.078735" fill-rule="evenodd"/><path fill="#000000" fill-opacity="0.0" d="m226.0 224.09186l-52.314957 -38.078735" fill-rule="evenodd"/><path stroke="#595959" stroke-width="2.0" stroke-linejoin="round" stroke-linecap="butt" d="m226.0 224.09186l-52.314957 -38.078735" fill-rule="evenodd"/><path fill="#000000" fill-opacity="0.0" d="m279.0735 224.09186l-52.314957 -38.078735" fill-rule="evenodd"/><path stroke="#595959" stroke-width="2.0" stroke-linejoin="round" stroke-linecap="butt" d="m279.0735 224.09186l-52.314957 -38.078735" fill-rule="evenodd"/><path fill="#000000" fill-opacity="0.0" d="m332.14697 224.09186l-52.31494 -38.078735" fill-rule="evenodd"/><path stroke="#595959" stroke-width="2.0" stroke-linejoin="round" stroke-linecap="butt" d="m332.14697 224.09186l-52.31494 -38.078735" fill-rule="evenodd"/><path fill="#000000" fill-opacity="0.0" d="m385.22046 224.09186l-105.3858 -38.078735" fill-rule="evenodd"/><path stroke="#595959" stroke-width="2.0" stroke-linejoin="round" stroke-linecap="butt" d="m385.22046 224.09186l-105.3858 -38.078735" fill-rule="evenodd"/><path fill="#000000" fill-opacity="0.0" d="m226.0 224.09186l53.858276 -38.078735" fill-rule="evenodd"/><path stroke="#595959" stroke-width="2.0" stroke-linejoin="round" stroke-linecap="butt" d="m226.0 224.09186l53.858276 -38.078735" fill-rule="evenodd"/><path fill="#000000" fill-opacity="0.0" d="m56.220474 68.950134l341.10236 0l0 38.078735l-341.10236 0z" fill-rule="evenodd"/><path fill="#434343" d="m107.45076 96.789505q1.40625 0.96875 2.59375 1.421875l-0.59375 1.40625q-1.65625 -0.59375 -3.28125 -1.875q-1.703125 0.953125 -3.75 0.953125q-2.078125 0 -3.765625 -1.0q-1.6875 -1.0 -2.59375 -2.8125q-0.90625 -1.8125 -0.90625 -4.09375q0 -2.25 0.90625 -4.09375q0.921875 -1.859375 2.609375 -2.828125q1.703125 -0.96875 3.796875 -0.96875q2.109375 0 3.796875 1.0q1.703125 1.0 2.59375 2.8125q0.890625 1.796875 0.890625 4.078125q0 1.875 -0.578125 3.390625q-0.5625 1.5 -1.71875 2.609375zm-4.453125 -2.578125q1.75 0.484375 2.890625 1.453125q1.78125 -1.625 1.78125 -4.875q0 -1.859375 -0.640625 -3.234375q-0.625 -1.390625 -1.84375 -2.15625q-1.203125 -0.765625 -2.71875 -0.765625q-2.25 0 -3.75 1.546875q-1.484375 1.546875 -1.484375 4.609375q0 2.984375 1.46875 4.578125q1.484375 1.59375 3.765625 1.59375q1.09375 0 2.046875 -0.40625q-0.953125 -0.609375 -2.0 -0.875l0.484375 -1.46875zm12.808456 8.703125q-1.546875 -1.953125 -2.625 -4.578125q-1.0625 -2.625 -1.0625 -5.4375q0 -2.484375 0.796875 -4.75q0.9375 -2.625 2.890625 -5.25l1.34375 0q-1.25 2.171875 -1.65625 3.09375q-0.640625 1.4375 -1.0 3.0q-0.453125 1.953125 -0.453125 3.921875q0 5.0 3.109375 10.0l-1.34375 0zm2.7743073 -7.78125l1.859375 -0.296875q0.15625 1.109375 0.859375 1.703125q0.71875 0.59375 2.0 0.59375q1.296875 0 1.921875 -0.515625q0.625 -0.53125 0.625 -1.234375q0 -0.640625 -0.5625 -1.0q-0.375 -0.25 -1.90625 -0.640625q-2.0625 -0.515625 -2.859375 -0.890625q-0.796875 -0.390625 -1.21875 -1.0625q-0.40625 -0.671875 -0.40625 -1.484375q0 -0.734375 0.328125 -1.359375q0.34375 -0.640625 0.9375 -1.0625q0.4375 -0.3125 1.1875 -0.53125q0.75 -0.234375 1.625 -0.234375q1.296875 0 2.28125 0.375q0.984375 0.375 1.453125 1.015625q0.46875 0.640625 0.640625 1.71875l-1.828125 0.25q-0.125 -0.859375 -0.734375 -1.328125q-0.59375 -0.484375 -1.6875 -0.484375q-1.28125 0 -1.84375 0.421875q-0.546875 0.421875 -0.546875 1.0q0 0.359375 0.234375 0.65625q0.21875 0.296875 0.71875 0.5q0.28125 0.109375 1.65625 0.484375q1.984375 0.53125 2.765625 0.875q0.796875 0.328125 1.234375 0.984375q0.453125 0.640625 0.453125 1.59375q0 0.9375 -0.546875 1.765625q-0.546875 0.828125 -1.578125 1.28125q-1.03125 0.453125 -2.328125 0.453125q-2.15625 0 -3.296875 -0.890625q-1.125 -0.90625 -1.4375 -2.65625zm11.8984375 3.296875l0 -2.140625l2.140625 0l0 2.140625q0 1.171875 -0.421875 1.890625q-0.40625 0.734375 -1.3125 1.125l-0.53125 -0.796875q0.59375 -0.265625 0.875 -0.765625q0.28125 -0.5 0.3125 -1.453125l-1.0625 0zm18.585663 -1.359375q-1.046875 0.875 -2.015625 1.25q-0.953125 0.359375 -2.0625 0.359375q-1.8125 0 -2.796875 -0.890625q-0.984375 -0.890625 -0.984375 -2.28125q0 -0.8125 0.375 -1.484375q0.375 -0.671875 0.96875 -1.078125q0.59375 -0.40625 1.34375 -0.609375q0.5625 -0.140625 1.671875 -0.28125q2.265625 -0.265625 3.34375 -0.640625q0.015625 -0.390625 0.015625 -0.5q0 -1.140625 -0.53125 -1.609375q-0.71875 -0.640625 -2.140625 -0.640625q-1.328125 0 -1.953125 0.46875q-0.625 0.46875 -0.9375 1.640625l-1.828125 -0.25q0.25 -1.171875 0.8125 -1.890625q0.578125 -0.734375 1.65625 -1.125q1.09375 -0.390625 2.515625 -0.390625q1.421875 0 2.296875 0.34375q0.890625 0.328125 1.3125 0.828125q0.421875 0.5 0.578125 1.28125q0.09375 0.46875 0.09375 1.71875l0 2.5q0 2.625 0.125 3.3125q0.125 0.6875 0.46875 1.328125l-1.953125 0q-0.296875 -0.578125 -0.375 -1.359375zm-0.15625 -4.1875q-1.015625 0.40625 -3.0625 0.703125q-1.15625 0.171875 -1.640625 0.375q-0.46875 0.203125 -0.734375 0.609375q-0.265625 0.40625 -0.265625 0.890625q0 0.75 0.5625 1.25q0.578125 0.5 1.671875 0.5q1.078125 0 1.921875 -0.46875q0.84375 -0.484375 1.25 -1.296875q0.296875 -0.640625 0.296875 -1.875l0 -0.6875z" fill-rule="nonzero"/><path fill="#434343" d="m157.59807 106.43013l-1.25 0l0 -7.96875q-0.453125 0.4375 -1.1875 0.875q-0.734375 0.421875 -1.3125 0.640625l0 -1.21875q1.046875 -0.484375 1.828125 -1.1875q0.796875 -0.703125 1.109375 -1.359375l0.8125 0l0 10.21875z" fill-rule="nonzero"/><path fill="#434343" d="m162.84949 102.914505l-1.34375 0q3.109375 -5.0 3.109375 -10.0q0 -1.96875 -0.453125 -3.890625q-0.34375 -1.5625 -0.984375 -3.0q-0.40625 -0.9375 -1.671875 -3.125l1.34375 0q1.953125 2.625 2.890625 5.25q0.796875 2.265625 0.796875 4.75q0 2.8125 -1.078125 5.4375q-1.078125 2.625 -2.609375 4.578125z" fill-rule="nonzero"/><path fill="#434343" d="m203.45076 96.789505q1.40625 0.96875 2.59375 1.421875l-0.59375 1.40625q-1.65625 -0.59375 -3.28125 -1.875q-1.703125 0.953125 -3.75 0.953125q-2.078125 0 -3.765625 -1.0q-1.6875 -1.0 -2.59375 -2.8125q-0.90625 -1.8125 -0.90625 -4.09375q0 -2.25 0.90625 -4.09375q0.921875 -1.859375 2.609375 -2.828125q1.703125 -0.96875 3.796875 -0.96875q2.109375 0 3.796875 1.0q1.703125 1.0 2.59375 2.8125q0.890625 1.796875 0.890625 4.078125q0 1.875 -0.578125 3.390625q-0.5625 1.5 -1.71875 2.609375zm-4.453125 -2.578125q1.75 0.484375 2.890625 1.453125q1.78125 -1.625 1.78125 -4.875q0 -1.859375 -0.640625 -3.234375q-0.625 -1.390625 -1.84375 -2.15625q-1.203125 -0.765625 -2.71875 -0.765625q-2.25 0 -3.75 1.546875q-1.484375 1.546875 -1.484375 4.609375q0 2.984375 1.46875 4.578125q1.484375 1.59375 3.765625 1.59375q1.09375 0 2.046875 -0.40625q-0.953125 -0.609375 -2.0 -0.875l0.484375 -1.46875zm12.808456 8.703125q-1.546875 -1.953125 -2.625 -4.578125q-1.0625 -2.625 -1.0625 -5.4375q0 -2.484375 0.796875 -4.75q0.9375 -2.625 2.890625 -5.25l1.34375 0q-1.25 2.171875 -1.65625 3.09375q-0.640625 1.4375 -1.0 3.0q-0.453125 1.953125 -0.453125 3.921875q0 5.0 3.109375 10.0l-1.34375 0zm2.7743073 -7.78125l1.859375 -0.296875q0.15625 1.109375 0.859375 1.703125q0.71875 0.59375 2.0 0.59375q1.296875 0 1.921875 -0.515625q0.625 -0.53125 0.625 -1.234375q0 -0.640625 -0.5625 -1.0q-0.375 -0.25 -1.90625 -0.640625q-2.0625 -0.515625 -2.859375 -0.890625q-0.796875 -0.390625 -1.21875 -1.0625q-0.40625 -0.671875 -0.40625 -1.484375q0 -0.734375 0.328125 -1.359375q0.34375 -0.640625 0.9375 -1.0625q0.4375 -0.3125 1.1875 -0.53125q0.75 -0.234375 1.625 -0.234375q1.296875 0 2.28125 0.375q0.984375 0.375 1.453125 1.015625q0.46875 0.640625 0.640625 1.71875l-1.828125 0.25q-0.125 -0.859375 -0.734375 -1.328125q-0.59375 -0.484375 -1.6875 -0.484375q-1.28125 0 -1.84375 0.421875q-0.546875 0.421875 -0.546875 1.0q0 0.359375 0.234375 0.65625q0.21875 0.296875 0.71875 0.5q0.28125 0.109375 1.65625 0.484375q1.984375 0.53125 2.765625 0.875q0.796875 0.328125 1.234375 0.984375q0.453125 0.640625 0.453125 1.59375q0 0.9375 -0.546875 1.765625q-0.546875 0.828125 -1.578125 1.28125q-1.03125 0.453125 -2.328125 0.453125q-2.15625 0 -3.296875 -0.890625q-1.125 -0.90625 -1.4375 -2.65625zm11.8984375 3.296875l0 -2.140625l2.140625 0l0 2.140625q0 1.171875 -0.421875 1.890625q-0.40625 0.734375 -1.3125 1.125l-0.53125 -0.796875q0.59375 -0.265625 0.875 -0.765625q0.28125 -0.5 0.3125 -1.453125l-1.0625 0zm18.585663 -1.359375q-1.046875 0.875 -2.015625 1.25q-0.953125 0.359375 -2.0625 0.359375q-1.8125 0 -2.796875 -0.890625q-0.984375 -0.890625 -0.984375 -2.28125q0 -0.8125 0.375 -1.484375q0.375 -0.671875 0.96875 -1.078125q0.59375 -0.40625 1.34375 -0.609375q0.5625 -0.140625 1.671875 -0.28125q2.265625 -0.265625 3.34375 -0.640625q0.015625 -0.390625 0.015625 -0.5q0 -1.140625 -0.53125 -1.609375q-0.71875 -0.640625 -2.140625 -0.640625q-1.328125 0 -1.953125 0.46875q-0.625 0.46875 -0.9375 1.640625l-1.828125 -0.25q0.25 -1.171875 0.8125 -1.890625q0.578125 -0.734375 1.65625 -1.125q1.09375 -0.390625 2.515625 -0.390625q1.421875 0 2.296875 0.34375q0.890625 0.328125 1.3125 0.828125q0.421875 0.5 0.578125 1.28125q0.09375 0.46875 0.09375 1.71875l0 2.5q0 2.625 0.125 3.3125q0.125 0.6875 0.46875 1.328125l-1.953125 0q-0.296875 -0.578125 -0.375 -1.359375zm-0.15625 -4.1875q-1.015625 0.40625 -3.0625 0.703125q-1.15625 0.171875 -1.640625 0.375q-0.46875 0.203125 -0.734375 0.609375q-0.265625 0.40625 -0.265625 0.890625q0 0.75 0.5625 1.25q0.578125 0.5 1.671875 0.5q1.078125 0 1.921875 -0.46875q0.84375 -0.484375 1.25 -1.296875q0.296875 -0.640625 0.296875 -1.875l0 -0.6875z" fill-rule="nonzero"/><path fill="#434343" d="m255.45744 105.227005l0 1.203125l-6.71875 0q-0.015625 -0.453125 0.140625 -0.875q0.25 -0.6875 0.8125 -1.34375q0.578125 -0.671875 1.640625 -1.546875q1.65625 -1.359375 2.234375 -2.15625q0.59375 -0.796875 0.59375 -1.5q0 -0.75 -0.53125 -1.25q-0.53125 -0.515625 -1.390625 -0.515625q-0.890625 0 -1.4375 0.546875q-0.546875 0.53125 -0.546875 1.5l-1.28125 -0.140625q0.125 -1.4375 0.984375 -2.1875q0.859375 -0.75 2.3125 -0.75q1.46875 0 2.3125 0.8125q0.859375 0.8125 0.859375 2.015625q0 0.609375 -0.25 1.203125q-0.25 0.578125 -0.828125 1.234375q-0.578125 0.65625 -1.921875 1.796875q-1.125 0.9375 -1.453125 1.28125q-0.3125 0.328125 -0.515625 0.671875l4.984375 0z" fill-rule="nonzero"/><path fill="#434343" d="m258.8495 102.914505l-1.34375 0q3.109375 -5.0 3.109375 -10.0q0 -1.96875 -0.453125 -3.890625q-0.34375 -1.5625 -0.984375 -3.0q-0.40625 -0.9375 -1.671875 -3.125l1.34375 0q1.953125 2.625 2.890625 5.25q0.796875 2.265625 0.796875 4.75q0 2.8125 -1.078125 5.4375q-1.078125 2.625 -2.609375 4.578125z" fill-rule="nonzero"/><path fill="#434343" d="m299.45074 96.789505q1.40625 0.96875 2.59375 1.421875l-0.59375 1.40625q-1.65625 -0.59375 -3.28125 -1.875q-1.703125 0.953125 -3.75 0.953125q-2.078125 0 -3.765625 -1.0q-1.6875 -1.0 -2.59375 -2.8125q-0.90625 -1.8125 -0.90625 -4.09375q0 -2.25 0.90625 -4.09375q0.921875 -1.859375 2.609375 -2.828125q1.703125 -0.96875 3.796875 -0.96875q2.109375 0 3.796875 1.0q1.703125 1.0 2.59375 2.8125q0.890625 1.796875 0.890625 4.078125q0 1.875 -0.578125 3.390625q-0.5625 1.5 -1.71875 2.609375zm-4.453125 -2.578125q1.75 0.484375 2.890625 1.453125q1.78125 -1.625 1.78125 -4.875q0 -1.859375 -0.640625 -3.234375q-0.625 -1.390625 -1.84375 -2.15625q-1.203125 -0.765625 -2.71875 -0.765625q-2.25 0 -3.75 1.546875q-1.484375 1.546875 -1.484375 4.609375q0 2.984375 1.46875 4.578125q1.484375 1.59375 3.765625 1.59375q1.09375 0 2.046875 -0.40625q-0.953125 -0.609375 -2.0 -0.875l0.484375 -1.46875zm12.808472 8.703125q-1.546875 -1.953125 -2.625 -4.578125q-1.0625 -2.625 -1.0625 -5.4375q0 -2.484375 0.796875 -4.75q0.9375 -2.625 2.890625 -5.25l1.34375 0q-1.25 2.171875 -1.65625 3.09375q-0.640625 1.4375 -1.0 3.0q-0.453125 1.953125 -0.453125 3.921875q0 5.0 3.109375 10.0l-1.34375 0zm2.774292 -7.78125l1.859375 -0.296875q0.15625 1.109375 0.859375 1.703125q0.71875 0.59375 2.0 0.59375q1.296875 0 1.921875 -0.515625q0.625 -0.53125 0.625 -1.234375q0 -0.640625 -0.5625 -1.0q-0.375 -0.25 -1.90625 -0.640625q-2.0625 -0.515625 -2.859375 -0.890625q-0.796875 -0.390625 -1.21875 -1.0625q-0.40625 -0.671875 -0.40625 -1.484375q0 -0.734375 0.328125 -1.359375q0.34375 -0.640625 0.9375 -1.0625q0.4375 -0.3125 1.1875 -0.53125q0.75 -0.234375 1.625 -0.234375q1.296875 0 2.28125 0.375q0.984375 0.375 1.453125 1.015625q0.46875 0.640625 0.640625 1.71875l-1.828125 0.25q-0.125 -0.859375 -0.734375 -1.328125q-0.59375 -0.484375 -1.6875 -0.484375q-1.28125 0 -1.84375 0.421875q-0.546875 0.421875 -0.546875 1.0q0 0.359375 0.234375 0.65625q0.21875 0.296875 0.71875 0.5q0.28125 0.109375 1.65625 0.484375q1.984375 0.53125 2.765625 0.875q0.796875 0.328125 1.234375 0.984375q0.453125 0.640625 0.453125 1.59375q0 0.9375 -0.546875 1.765625q-0.546875 0.828125 -1.578125 1.28125q-1.03125 0.453125 -2.328125 0.453125q-2.15625 0 -3.296875 -0.890625q-1.125 -0.90625 -1.4375 -2.65625zm11.8984375 3.296875l0 -2.140625l2.140625 0l0 2.140625q0 1.171875 -0.421875 1.890625q-0.40625 0.734375 -1.3125 1.125l-0.53125 -0.796875q0.59375 -0.265625 0.875 -0.765625q0.28125 -0.5 0.3125 -1.453125l-1.0625 0zm18.585663 -1.359375q-1.046875 0.875 -2.015625 1.25q-0.953125 0.359375 -2.0625 0.359375q-1.8125 0 -2.796875 -0.890625q-0.984375 -0.890625 -0.984375 -2.28125q0 -0.8125 0.375 -1.484375q0.375 -0.671875 0.96875 -1.078125q0.59375 -0.40625 1.34375 -0.609375q0.5625 -0.140625 1.671875 -0.28125q2.265625 -0.265625 3.34375 -0.640625q0.015625 -0.390625 0.015625 -0.5q0 -1.140625 -0.53125 -1.609375q-0.71875 -0.640625 -2.140625 -0.640625q-1.328125 0 -1.953125 0.46875q-0.625 0.46875 -0.9375 1.640625l-1.828125 -0.25q0.25 -1.171875 0.8125 -1.890625q0.578125 -0.734375 1.65625 -1.125q1.09375 -0.390625 2.515625 -0.390625q1.421875 0 2.296875 0.34375q0.890625 0.328125 1.3125 0.828125q0.421875 0.5 0.578125 1.28125q0.09375 0.46875 0.09375 1.71875l0 2.5q0 2.625 0.125 3.3125q0.125 0.6875 0.46875 1.328125l-1.953125 0q-0.296875 -0.578125 -0.375 -1.359375zm-0.15625 -4.1875q-1.015625 0.40625 -3.0625 0.703125q-1.15625 0.171875 -1.640625 0.375q-0.46875 0.203125 -0.734375 0.609375q-0.265625 0.40625 -0.265625 0.890625q0 0.75 0.5625 1.25q0.578125 0.5 1.671875 0.5q1.078125 0 1.921875 -0.46875q0.84375 -0.484375 1.25 -1.296875q0.296875 -0.640625 0.296875 -1.875l0 -0.6875z" fill-rule="nonzero"/><path fill="#434343" d="m344.89493 103.74263l1.25 -0.171875q0.21875 1.0625 0.734375 1.53125q0.515625 0.46875 1.265625 0.46875q0.875 0 1.484375 -0.609375q0.609375 -0.609375 0.609375 -1.515625q0 -0.859375 -0.5625 -1.40625q-0.5625 -0.5625 -1.4375 -0.5625q-0.34375 0 -0.875 0.140625l0.140625 -1.109375q0.125 0.015625 0.203125 0.015625q0.796875 0 1.4375 -0.40625q0.640625 -0.421875 0.640625 -1.296875q0 -0.6875 -0.46875 -1.125q-0.46875 -0.453125 -1.203125 -0.453125q-0.734375 0 -1.21875 0.453125q-0.484375 0.453125 -0.625 1.375l-1.25 -0.21875q0.234375 -1.265625 1.046875 -1.953125q0.8125 -0.6875 2.015625 -0.6875q0.828125 0 1.53125 0.359375q0.703125 0.359375 1.078125 0.984375q0.375 0.609375 0.375 1.296875q0 0.65625 -0.359375 1.203125q-0.359375 0.546875 -1.046875 0.859375q0.90625 0.21875 1.40625 0.875q0.5 0.65625 0.5 1.640625q0 1.328125 -0.984375 2.265625q-0.96875 0.921875 -2.453125 0.921875q-1.328125 0 -2.21875 -0.796875q-0.890625 -0.8125 -1.015625 -2.078125z" fill-rule="nonzero"/><path fill="#434343" d="m354.8495 102.914505l-1.34375 0q3.109375 -5.0 3.109375 -10.0q0 -1.96875 -0.453125 -3.890625q-0.34375 -1.5625 -0.984375 -3.0q-0.40625 -0.9375 -1.671875 -3.125l1.34375 0q1.953125 2.625 2.890625 5.25q0.796875 2.265625 0.796875 4.75q0 2.8125 -1.078125 5.4375q-1.078125 2.625 -2.609375 4.578125z" fill-rule="nonzero"/><path fill="#000000" fill-opacity="0.0" d="m173.69817 140.69554l-36.157486 -34.77166" fill-rule="evenodd"/><path stroke="#595959" stroke-width="2.0" stroke-linejoin="round" stroke-linecap="butt" d="m173.69817 140.69554l-36.157486 -34.77166" fill-rule="evenodd"/><path fill="#000000" fill-opacity="0.0" d="m226.77165 140.69554l0 -33.669296" fill-rule="evenodd"/><path stroke="#595959" stroke-width="2.0" stroke-linejoin="round" stroke-linecap="butt" d="m226.77165 140.69554l0 -33.669296" fill-rule="evenodd"/><path fill="#000000" fill-opacity="0.0" d="m279.84515 140.69554l46.078735 -33.70079" fill-rule="evenodd"/><path stroke="#595959" stroke-width="2.0" stroke-linejoin="round" stroke-linecap="butt" d="m279.84515 140.69554l46.078735 -33.70079" fill-rule="evenodd"/><path fill="#000000" fill-opacity="0.0" d="m138.34645 22.787401l175.30708 0l0 58.92914l-175.30708 0z" fill-rule="evenodd"/><path fill="#434343" d="m181.04225 55.340527q1.765625 1.21875 3.25 1.78125l-0.75 1.75q-2.0625 -0.75 -4.09375 -2.34375q-2.125 1.1875 -4.6875 1.1875q-2.59375 0 -4.703125 -1.25q-2.109375 -1.25 -3.25 -3.515625q-1.140625 -2.265625 -1.140625 -5.109375q0 -2.8125 1.140625 -5.125q1.15625 -2.328125 3.265625 -3.53125q2.125 -1.21875 4.734375 -1.21875q2.640625 0 4.765625 1.265625q2.125 1.25 3.234375 3.515625q1.109375 2.25 1.109375 5.09375q0 2.34375 -0.71875 4.234375q-0.703125 1.875 -2.15625 3.265625zm-5.5625 -3.21875q2.1875 0.609375 3.609375 1.8125q2.234375 -2.03125 2.234375 -6.09375q0 -2.328125 -0.796875 -4.046875q-0.78125 -1.734375 -2.296875 -2.6875q-1.515625 -0.96875 -3.40625 -0.96875q-2.828125 0 -4.6875 1.9375q-1.859375 1.9375 -1.859375 5.765625q0 3.734375 1.84375 5.734375q1.84375 1.984375 4.703125 1.984375q1.359375 0 2.546875 -0.515625q-1.1875 -0.765625 -2.5 -1.09375l0.609375 -1.828125zm10.62471 -0.46875l0 -2.34375l7.203125 0l0 2.34375l-7.203125 0zm9.7829895 5.734375l0 -13.828125l2.109375 0l0 1.96875q1.53125 -2.28125 4.40625 -2.28125q1.25 0 2.296875 0.453125q1.046875 0.453125 1.5625 1.1875q0.53125 0.71875 0.734375 1.71875q0.125 0.65625 0.125 2.28125l0 8.5l-2.34375 0l0 -8.40625q0 -1.4375 -0.28125 -2.140625q-0.265625 -0.71875 -0.96875 -1.140625q-0.6875 -0.421875 -1.625 -0.421875q-1.484375 0 -2.578125 0.953125q-1.09375 0.953125 -1.09375 3.609375l0 7.546875l-2.34375 0zm24.293686 -4.453125l2.421875 0.296875q-0.578125 2.125 -2.125 3.296875q-1.546875 1.171875 -3.953125 1.171875q-3.03125 0 -4.8125 -1.859375q-1.78125 -1.875 -1.78125 -5.25q0 -3.484375 1.796875 -5.40625q1.796875 -1.9375 4.671875 -1.9375q2.765625 0 4.515625 1.890625q1.765625 1.890625 1.765625 5.3125q0 0.203125 -0.015625 0.625l-10.3125 0q0.140625 2.28125 1.296875 3.5q1.15625 1.203125 2.890625 1.203125q1.28125 0 2.1875 -0.671875q0.921875 -0.6875 1.453125 -2.171875zm-7.6875 -3.78125l7.71875 0q-0.15625 -1.75 -0.890625 -2.625q-1.125 -1.34375 -2.90625 -1.34375q-1.609375 0 -2.71875 1.078125q-1.09375 1.078125 -1.203125 2.890625zm18.168686 6.140625l0.328125 2.0625q-0.984375 0.21875 -1.765625 0.21875q-1.265625 0 -1.96875 -0.40625q-0.703125 -0.40625 -1.0 -1.0625q-0.28125 -0.65625 -0.28125 -2.765625l0 -7.953125l-1.71875 0l0 -1.828125l1.71875 0l0 -3.421875l2.328125 -1.40625l0 4.828125l2.359375 0l0 1.828125l-2.359375 0l0 8.078125q0 1.0 0.125 1.296875q0.125 0.28125 0.40625 0.453125q0.28125 0.171875 0.796875 0.171875q0.390625 0 1.03125 -0.09375zm4.84346 2.09375l-4.234375 -13.828125l2.421875 0l2.203125 7.984375l0.8125 2.96875q0.0625 -0.21875 0.71875 -2.859375l2.203125 -8.09375l2.40625 0l2.0625 8.015625l0.6875 2.65625l0.796875 -2.671875l2.375 -8.0l2.28125 0l-4.328125 13.828125l-2.4375 0l-2.1875 -8.28125l-0.546875 -2.359375l-2.796875 10.640625l-2.4375 0zm15.828415 -6.90625q0 -3.84375 2.125 -5.6875q1.78125 -1.546875 4.34375 -1.546875q2.859375 0 4.65625 1.875q1.8125 1.859375 1.8125 5.15625q0 2.671875 -0.796875 4.203125q-0.796875 1.53125 -2.328125 2.375q-1.53125 0.84375 -3.34375 0.84375q-2.890625 0 -4.6875 -1.859375q-1.78125 -1.859375 -1.78125 -5.359375zm2.40625 0q0 2.65625 1.15625 3.984375q1.15625 1.3125 2.90625 1.3125q1.75 0 2.90625 -1.328125q1.15625 -1.328125 1.15625 -4.046875q0 -2.5625 -1.171875 -3.890625q-1.15625 -1.328125 -2.890625 -1.328125q-1.75 0 -2.90625 1.328125q-1.15625 1.3125 -1.15625 3.96875zm13.262451 6.90625l0 -13.828125l2.109375 0l0 2.09375q0.796875 -1.46875 1.484375 -1.9375q0.6875 -0.46875 1.5 -0.46875q1.1875 0 2.40625 0.765625l-0.796875 2.171875q-0.859375 -0.515625 -1.71875 -0.515625q-0.765625 0 -1.390625 0.46875q-0.609375 0.453125 -0.859375 1.28125q-0.390625 1.25 -0.390625 2.734375l0 7.234375l-2.34375 0zm8.9079895 0l0 -19.078125l2.34375 0l0 10.875l5.546875 -5.625l3.03125 0l-5.28125 5.140625l5.8125 8.6875l-2.890625 0l-4.5625 -7.0625l-1.65625 1.578125l0 5.484375l-2.34375 0z" fill-rule="nonzero"/></g></svg>